<?xml version="1.0" standalone="no"?>
<!DOCTYPE svg PUBLIC "-//W3C//DTD SVG 20010904//EN"
 "http://www.w3.org/TR/2001/REC-SVG-20010904/DTD/svg10.dtd">
<svg version="1.0" xmlns="http://www.w3.org/2000/svg"
 width="50.000000pt" height="50.000000pt" viewBox="0 0 50.000000 50.000000"
 preserveAspectRatio="xMidYMid meet">

<g transform="translate(0.000000,50.000000) scale(0.100000,-0.100000)"
fill="#000000" stroke="none">
<path d="M280 468 c0 -9 -22 -35 -49 -58 -28 -22 -53 -50 -56 -60 -8 -24 19
-76 46 -90 20 -11 20 -11 5 19 -22 43 -20 53 18 90 43 42 64 87 47 104 -8 8
-11 7 -11 -5z"/>
<path d="M310 399 c-58 -23 -75 -63 -44 -107 9 -14 13 -31 9 -45 l-7 -22 23
22 c21 21 22 24 9 64 l-14 41 35 29 c35 29 32 35 -11 18z"/>
<path d="M121 241 c-34 -9 -38 -29 -7 -37 39 -9 204 0 216 12 8 8 -14 10 -84
6 -64 -3 -96 -1 -96 6 0 6 6 13 13 15 18 8 -13 6 -42 -2z"/>
<path d="M385 230 c18 -20 18 -21 -4 -51 -20 -26 -20 -30 -6 -27 10 1 27 15
37 29 16 22 18 30 9 48 -7 11 -21 21 -33 21 -21 0 -21 -1 -3 -20z"/>
<path d="M137 183 c-35 -34 106 -54 180 -26 31 12 -10 20 -76 15 -45 -3 -71
-1 -75 7 -8 12 -19 14 -29 4z"/>
<path d="M155 130 c-4 -7 -3 -16 3 -22 12 -12 106 -15 140 -4 39 13 12 27 -46
24 -31 -1 -64 1 -73 6 -10 4 -20 3 -24 -4z"/>
<path d="M61 96 c-10 -12 -7 -18 15 -33 31 -20 170 -30 249 -18 51 7 92 35 80
55 -6 10 -10 9 -17 -3 -5 -9 -25 -21 -46 -27 -40 -11 -158 -12 -206 -1 -34 7
-45 27 -19 34 10 3 5 5 -13 6 -17 0 -37 -5 -43 -13z"/>
<path d="M390 37 c-34 -15 -68 -20 -140 -20 -99 -1 -82 -14 21 -16 58 -1 153
22 165 40 11 18 1 17 -46 -4z"/>
</g>
</svg>
