<?xml version="1.0" standalone="no"?>
<!DOCTYPE svg PUBLIC "-//W3C//DTD SVG 20010904//EN"
 "http://www.w3.org/TR/2001/REC-SVG-20010904/DTD/svg10.dtd">
<svg version="1.0" xmlns="http://www.w3.org/2000/svg"
 width="24.000000pt" height="24.000000pt" viewBox="0 0 24.000000 24.000000"
 preserveAspectRatio="xMidYMid meet">

<g transform="translate(0.000000,24.000000) scale(0.100000,-0.100000)"
fill="#000000" stroke="none">
<path d="M0 232 c0 -5 8 -24 17 -43 9 -19 17 -52 18 -74 0 -32 4 -40 20 -43
11 -2 29 -11 39 -21 15 -12 14 -8 -5 21 -15 24 -25 32 -27 23 -7 -30 -24 -14
-20 17 3 20 -2 50 -13 75 -10 24 -17 43 -14 43 2 0 23 -8 47 -19 45 -19 98
-71 98 -96 0 -8 14 -22 30 -32 32 -19 39 -33 15 -33 -23 0 -18 -16 13 -35 l27
-18 -18 21 c-17 19 -17 21 -1 30 15 8 13 12 -15 33 -17 13 -43 43 -57 67 -20
34 -38 49 -80 68 -58 26 -74 29 -74 16z"/>
</g>
</svg>
